<svg xmlns="http://www.w3.org/2000/svg" viewBox="0 0 24 24" width="70" height="70" id="rocket-icon">
  <path fill="#FF9900" d="M12,2.5c0,0-7.5,6-7.5,13.5c0,0.9,0.7,2,2,2s2-1.1,2-2c0-0.7,0.1-1.4,0.4-2h6.2c0.3,0.6,0.4,1.3,0.4,2  c0,0.9,0.7,2,2,2s2-1.1,2-2C19.5,8.5,12,2.5,12,2.5z"/>
  <circle fill="#FFFFFF" cx="12" cy="10" r="2"/>
  <path fill="#FF5722" d="M8.5,16C8.5,16,8.5,16,8.5,16l1,4c0,0,0.5,1,2.5,1s2.5-1,2.5-1l1-4c0,0,0,0,0,0H8.5z"/>
  <path fill="#FF9900" d="M12,22.5c0,0-1.5-2-1.5-3s0.7-1,1.5-1s1.5,0,1.5,1S12,22.5,12,22.5z"/>
</svg>