<?xml version="1.0" encoding="UTF-8"?>
<svg width="400" height="400" viewBox="0 0 400 400" fill="none" xmlns="http://www.w3.org/2000/svg">
    <!-- Background circle -->
    <circle cx="200" cy="200" r="180" stroke="#FFD700" stroke-width="2" stroke-dasharray="4 4"/>
    
    <!-- Center planet -->
    <circle cx="200" cy="200" r="40" fill="#FF6B6B"/>
    <circle cx="200" cy="200" r="40" fill="url(#centerGlow)" fill-opacity="0.5"/>
    
    <!-- Orbiting planets -->
    <circle cx="120" cy="150" r="25" fill="#4ECDC4"/>
    <circle cx="280" cy="150" r="30" fill="#A06CD5"/>
    <circle cx="200" cy="80" r="20" fill="#FF9F1C"/>
    <circle cx="150" cy="280" r="35" fill="#7CB518"/>
    <circle cx="250" cy="250" r="25" fill="#FF4365"/>
    
    <!-- Small decorative planets -->
    <circle cx="100" cy="200" r="8" fill="#FFE66D"/>
    <circle cx="300" cy="200" r="10" fill="#6C88C4"/>
    <circle cx="200" cy="300" r="12" fill="#FF7F51"/>
    <circle cx="180" cy="120" r="6" fill="#45B7D1"/>
    <circle cx="220" cy="160" r="8" fill="#98CE00"/>
    
    <!-- Glowing effects -->
    <defs>
        <radialGradient id="centerGlow" cx="0.5" cy="0.5" r="0.5" fx="0.5" fy="0.5">
            <stop offset="0%" stop-color="white" stop-opacity="0.3"/>
            <stop offset="100%" stop-color="white" stop-opacity="0"/>
        </radialGradient>
    </defs>
    
    <!-- Stars -->
    <g fill="white">
        <circle cx="50" cy="50" r="1"/>
        <circle cx="350" cy="50" r="1"/>
        <circle cx="50" cy="350" r="1"/>
        <circle cx="350" cy="350" r="1"/>
        <circle cx="150" cy="50" r="1"/>
        <circle cx="250" cy="50" r="1"/>
        <circle cx="150" cy="350" r="1"/>
        <circle cx="250" cy="350" r="1"/>
    </g>
</svg> 